<?xml version="1.0" encoding="utf-8"?>
<!-- Generator: Adobe Illustrator 22.1.0, SVG Export Plug-In . SVG Version: 6.00 Build 0)  -->
<svg version="1.1" id="Layer_1" xmlns="http://www.w3.org/2000/svg" xmlns:xlink="http://www.w3.org/1999/xlink" x="0px" y="0px"
	 viewBox="0 0 32 32" style="enable-background:new 0 0 32 32;" xml:space="preserve">
<style type="text/css">
	.st0{fill:#6C6C6C;}
	.st1{fill:#FFFFFF;}
</style>
<g id="Layer_7">
	<g>
		<path class="st0" d="M16,0C7.2,0,0,7.2,0,16c0,8.8,7.2,16,16,16s16-7.2,16-16C32,7.2,24.8,0,16,0z"/>
	</g>
	<g>
		<path class="st1" d="M18.2,7.2c0,0-4,0-5.4,0c-2.5,0-4.8,1.7-4.8,3.9c0,2.2,1.7,4,4.2,4c0.2,0,0.3,0,0.5-0.1
			c-0.2,0.3-0.3,0.6-0.3,1c0,0.6,0.3,1.1,0.8,1.5c-0.3,0-0.6,0-1,0c-3.1,0-5.4,2-5.4,4c0,2,2.6,3.3,5.7,3.3c3.5,0,5.5-2,5.5-4
			c0-1.6-0.5-2.6-1.9-3.6c-0.5-0.4-1.5-1.2-1.5-1.7c0-0.6,0.2-0.9,1.1-1.6c0.9-0.7,1.6-1.6,1.6-2.7c0-1.4-0.6-3.1-1.8-3.1h2
			L18.2,7.2z M16.4,20.5c0,0.2,0.1,0.4,0.1,0.6c0,1.6-1,2.9-4,2.9c-2.1,0-3.7-1.3-3.7-3c0-1.6,1.9-2.9,4-2.9c0.5,0,1,0.1,1.4,0.2
			C15.3,19.1,16.1,19.6,16.4,20.5z M13,14.4c-1.4,0-2.8-1.6-3-3.5c-0.2-1.9,0.7-3.3,2.1-3.3c1.4,0,2.8,1.6,3,3.4
			C15.4,13,14.4,14.5,13,14.4z"/>
		<polygon class="st1" points="22.6,14.2 22.6,11.6 20.9,11.6 20.9,14.2 18.2,14.2 18.2,16 20.9,16 20.9,18.6 22.6,18.6 22.6,16 
			25.3,16 25.3,14.2 		"/>
	</g>
</g>
</svg>
