<?xml version="1.0" encoding="utf-8"?>
<!-- Generator: Adobe Illustrator 22.1.0, SVG Export Plug-In . SVG Version: 6.00 Build 0)  -->
<svg version="1.1" id="Layer_1" xmlns="http://www.w3.org/2000/svg" xmlns:xlink="http://www.w3.org/1999/xlink" x="0px" y="0px"
	 viewBox="0 0 32 32" style="enable-background:new 0 0 32 32;" xml:space="preserve">
<style type="text/css">
	.st0{fill:#6C6C6C;}
</style>
<title>google-plus3</title>
<path class="st0" d="M16,0C7.2,0,0,7.2,0,16s7.2,16,16,16s16-7.2,16-16S24.8,0,16,0z M12,24c-4.4,0-8-3.6-8-8s3.6-8,8-8
	c2.2,0,4,0.8,5.4,2.1l-2.2,2.1C14.6,11.6,13.6,11,12,11c-2.7,0-5,2.3-5,5s2.2,5,5,5c3.2,0,4.4-2.3,4.5-3.5H12v-2.7h7.6
	c0.1,0.4,0.1,0.8,0.1,1.3C19.7,20.8,16.6,24,12,24L12,24z M26,16v2h-2v-2h-2v-2h2v-2h2v2h2v2H26z"/>
</svg>
