<?xml version="1.0" encoding="utf-8"?>
<!-- Generator: Adobe Illustrator 22.1.0, SVG Export Plug-In . SVG Version: 6.00 Build 0)  -->
<svg version="1.1" id="Layer_1" xmlns="http://www.w3.org/2000/svg" xmlns:xlink="http://www.w3.org/1999/xlink" x="0px" y="0px"
	 viewBox="0 0 32 32" style="enable-background:new 0 0 32 32;" xml:space="preserve">
<style type="text/css">
	.st0{fill:#6C6C6C;}
</style>
<title>compass</title>
<path class="st0" d="M17,32c-0.1,0-0.1,0-0.2,0c-0.5-0.1-0.8-0.5-0.8-1V16H1c-0.5,0-0.9-0.3-1-0.8s0.1-0.9,0.6-1.1l30-14
	C31-0.1,31.4,0,31.7,0.3s0.4,0.7,0.2,1.1l-14,30C17.7,31.8,17.4,32,17,32z M5.5,14H17c0.6,0,1,0.4,1,1v11.5L28.9,3.1
	C28.9,3.1,5.5,14,5.5,14z"/>
</svg>
