<svg id="Layer_1" data-name="Layer 1" xmlns="http://www.w3.org/2000/svg" viewBox="0 0 184.46 21"><defs><style>.cls-1{fill:#000001;}</style></defs><title>Logo Interior</title><path class="cls-1" d="M37.25,18.86V2H31.68V18.86Z"/><path class="cls-1" d="M60.79,18.86V2h-5v8.64L49.1,2H44.45V18.86h5.06v-8.6l6.63,8.6Z"/><path class="cls-1" d="M82.06,6.42V2H66.91V6.42h4.78V18.86h5.57V6.42Z"/><path class="cls-1" d="M102.41,6.25V2H88.17V18.86h14.45V14.63H93.74V12.54h7.88V8.32H93.74V6.25Z"/><path class="cls-1" d="M119.21,18.86h6.29l-3.32-5.48a5.84,5.84,0,0,0,2.67-5.33c0-3.84-2.62-6-7.18-6h-8.14V18.86h5.57V14.49h2.09Zm-4.11-8.6v-4h2.57a1.77,1.77,0,0,1,1.9,2,1.8,1.8,0,0,1-1.9,2Z"/><path class="cls-1" d="M137.3,18.86V2h-5.57V18.86Z"/><path class="cls-1" d="M152.9,1.86c-5.35,0-9.24,3.58-9.24,8.57s3.89,8.67,9.24,8.67,9.24-3.68,9.24-8.67S158.25,1.86,152.9,1.86ZM153,6.49a3.66,3.66,0,0,1,3.46,4c0,2.31-1.54,4-3.46,4a3.81,3.81,0,0,1-3.6-4A3.75,3.75,0,0,1,153,6.49Z"/><path class="cls-1" d="M178.17,18.86h6.29l-3.31-5.48a5.83,5.83,0,0,0,2.66-5.33c0-3.84-2.61-6-7.17-6H168.5V18.86h5.57V14.49h2.09Zm-4.1-8.6v-4h2.57a1.76,1.76,0,0,1,1.89,2,1.79,1.79,0,0,1-1.89,2Z"/><path class="cls-1" d="M0,9.19V0H9.19V9.19ZM11.81,0H21V9.19H11.81V0Zm0,21V11.81H21V21ZM0,21V11.81H9.19V21Z"/></svg>