<svg id="Layer_1" data-name="Layer 1" xmlns="http://www.w3.org/2000/svg" viewBox="0 0 21.98 22.01"><title>symbol Search</title><path d="M9,0A8.74,8.74,0,0,0,5.48.73a8.88,8.88,0,0,0-2.86,1.9A9.67,9.67,0,0,0,.7,5.51a9.05,9.05,0,0,0,0,7,9.85,9.85,0,0,0,1.92,2.89A9.45,9.45,0,0,0,5.48,17.3,9.06,9.06,0,0,0,9,18a8.6,8.6,0,0,0,3-.52A8.85,8.85,0,0,0,14.6,16l5.67,5.67A1,1,0,0,0,21,22a.88.88,0,0,0,.7-.31,1,1,0,0,0,0-1.4L16,14.63A8.88,8.88,0,0,0,17.48,12a8.8,8.8,0,0,0-.21-6.49,9,9,0,0,0-1.92-2.88A8.88,8.88,0,0,0,12.49.73,8.53,8.53,0,0,0,9,0ZM9,2a6.93,6.93,0,0,1,2.72.56A7.41,7.41,0,0,1,14,4.05a7.41,7.41,0,0,1,1.5,2.23,7.24,7.24,0,0,1,0,5.44A7.41,7.41,0,0,1,14,14a7.41,7.41,0,0,1-2.23,1.5A6.93,6.93,0,0,1,9,16a6.83,6.83,0,0,1-2.72-.56A7.38,7.38,0,0,1,4,14a7,7,0,0,1-1.48-2.23,6.89,6.89,0,0,1,0-5.44A7,7,0,0,1,4,4.05a7.38,7.38,0,0,1,2.25-1.5A6.83,6.83,0,0,1,9,2Z"/></svg>